<mxfile host="Electron" modified="2024-03-22T17:04:39.259Z" agent="Mozilla/5.0 (Windows NT 10.0; Win64; x64) AppleWebKit/537.36 (KHTML, like Gecko) draw.io/23.0.2 Chrome/120.0.6099.109 Electron/28.1.0 Safari/537.36" etag="o0CL05zjMoBnact8dEnw" version="23.0.2" type="device">
  <diagram name="Page-1" id="kfQTiohQmc1zt83iRFRp">
    <mxGraphModel dx="1219" dy="713" grid="1" gridSize="10" guides="1" tooltips="1" connect="1" arrows="1" fold="1" page="1" pageScale="1" pageWidth="850" pageHeight="1100" math="0" shadow="0">
      <root>
        <mxCell id="0" />
        <mxCell id="1" parent="0" />
        <mxCell id="cPrSTKIJWKcjtF2g2MPK-1" value="LOGIN PAGE" style="rounded=1;whiteSpace=wrap;html=1;" vertex="1" parent="1">
          <mxGeometry x="260" y="90" width="280" height="60" as="geometry" />
        </mxCell>
        <mxCell id="cPrSTKIJWKcjtF2g2MPK-2" value="" style="endArrow=classic;html=1;rounded=0;exitX=0.5;exitY=1;exitDx=0;exitDy=0;" edge="1" parent="1" source="cPrSTKIJWKcjtF2g2MPK-1" target="cPrSTKIJWKcjtF2g2MPK-3">
          <mxGeometry width="50" height="50" relative="1" as="geometry">
            <mxPoint x="400" y="340" as="sourcePoint" />
            <mxPoint x="400" y="240" as="targetPoint" />
          </mxGeometry>
        </mxCell>
        <mxCell id="cPrSTKIJWKcjtF2g2MPK-3" value="HOME" style="rounded=1;whiteSpace=wrap;html=1;" vertex="1" parent="1">
          <mxGeometry x="340" y="250" width="120" height="50" as="geometry" />
        </mxCell>
        <mxCell id="cPrSTKIJWKcjtF2g2MPK-4" value="ATTENDEE&lt;br&gt;REGISTRATION" style="rounded=0;whiteSpace=wrap;html=1;" vertex="1" parent="1">
          <mxGeometry x="350" y="400" width="120" height="60" as="geometry" />
        </mxCell>
        <mxCell id="cPrSTKIJWKcjtF2g2MPK-5" value="EVENT CREATION" style="rounded=0;whiteSpace=wrap;html=1;" vertex="1" parent="1">
          <mxGeometry x="80" y="400" width="120" height="60" as="geometry" />
        </mxCell>
        <mxCell id="cPrSTKIJWKcjtF2g2MPK-7" style="edgeStyle=orthogonalEdgeStyle;rounded=0;orthogonalLoop=1;jettySize=auto;html=1;exitX=0.5;exitY=1;exitDx=0;exitDy=0;" edge="1" parent="1">
          <mxGeometry relative="1" as="geometry">
            <mxPoint x="670" y="460" as="targetPoint" />
            <mxPoint x="670" y="450" as="sourcePoint" />
          </mxGeometry>
        </mxCell>
        <mxCell id="cPrSTKIJWKcjtF2g2MPK-8" value="FEEDBACK" style="rounded=0;whiteSpace=wrap;html=1;" vertex="1" parent="1">
          <mxGeometry x="640" y="400" width="120" height="60" as="geometry" />
        </mxCell>
        <mxCell id="cPrSTKIJWKcjtF2g2MPK-9" value="" style="endArrow=classic;html=1;rounded=0;exitX=0.5;exitY=1;exitDx=0;exitDy=0;entryX=0.43;entryY=-0.017;entryDx=0;entryDy=0;entryPerimeter=0;" edge="1" parent="1" source="cPrSTKIJWKcjtF2g2MPK-3" target="cPrSTKIJWKcjtF2g2MPK-4">
          <mxGeometry width="50" height="50" relative="1" as="geometry">
            <mxPoint x="400" y="340" as="sourcePoint" />
            <mxPoint x="450" y="290" as="targetPoint" />
          </mxGeometry>
        </mxCell>
        <mxCell id="cPrSTKIJWKcjtF2g2MPK-10" value="" style="endArrow=classic;html=1;rounded=0;" edge="1" parent="1" target="cPrSTKIJWKcjtF2g2MPK-5">
          <mxGeometry width="50" height="50" relative="1" as="geometry">
            <mxPoint x="400" y="360" as="sourcePoint" />
            <mxPoint x="450" y="290" as="targetPoint" />
            <Array as="points">
              <mxPoint x="140" y="360" />
            </Array>
          </mxGeometry>
        </mxCell>
        <mxCell id="cPrSTKIJWKcjtF2g2MPK-11" value="" style="endArrow=classic;html=1;rounded=0;entryX=0.5;entryY=0;entryDx=0;entryDy=0;" edge="1" parent="1" target="cPrSTKIJWKcjtF2g2MPK-8">
          <mxGeometry width="50" height="50" relative="1" as="geometry">
            <mxPoint x="400" y="360" as="sourcePoint" />
            <mxPoint x="720" y="360" as="targetPoint" />
            <Array as="points">
              <mxPoint x="700" y="360" />
            </Array>
          </mxGeometry>
        </mxCell>
        <mxCell id="cPrSTKIJWKcjtF2g2MPK-12" value="" style="endArrow=classic;html=1;rounded=0;exitX=0.5;exitY=1;exitDx=0;exitDy=0;" edge="1" parent="1" source="cPrSTKIJWKcjtF2g2MPK-5" target="cPrSTKIJWKcjtF2g2MPK-17">
          <mxGeometry width="50" height="50" relative="1" as="geometry">
            <mxPoint x="400" y="390" as="sourcePoint" />
            <mxPoint x="140" y="520" as="targetPoint" />
          </mxGeometry>
        </mxCell>
        <mxCell id="cPrSTKIJWKcjtF2g2MPK-13" value="" style="endArrow=classic;html=1;rounded=0;exitX=0.5;exitY=1;exitDx=0;exitDy=0;" edge="1" parent="1" source="cPrSTKIJWKcjtF2g2MPK-4" target="cPrSTKIJWKcjtF2g2MPK-16">
          <mxGeometry width="50" height="50" relative="1" as="geometry">
            <mxPoint x="400" y="390" as="sourcePoint" />
            <mxPoint x="410" y="520" as="targetPoint" />
          </mxGeometry>
        </mxCell>
        <mxCell id="cPrSTKIJWKcjtF2g2MPK-14" value="" style="endArrow=classic;html=1;rounded=0;exitX=0.5;exitY=1;exitDx=0;exitDy=0;" edge="1" parent="1" source="cPrSTKIJWKcjtF2g2MPK-8" target="cPrSTKIJWKcjtF2g2MPK-15">
          <mxGeometry width="50" height="50" relative="1" as="geometry">
            <mxPoint x="400" y="390" as="sourcePoint" />
            <mxPoint x="700" y="520" as="targetPoint" />
          </mxGeometry>
        </mxCell>
        <mxCell id="cPrSTKIJWKcjtF2g2MPK-15" value="" style="rounded=0;whiteSpace=wrap;html=1;" vertex="1" parent="1">
          <mxGeometry x="640" y="490" width="120" height="60" as="geometry" />
        </mxCell>
        <mxCell id="cPrSTKIJWKcjtF2g2MPK-16" value="Event selection" style="rounded=0;whiteSpace=wrap;html=1;" vertex="1" parent="1">
          <mxGeometry x="350" y="520" width="120" height="60" as="geometry" />
        </mxCell>
        <mxCell id="cPrSTKIJWKcjtF2g2MPK-17" value="Event details" style="rounded=0;whiteSpace=wrap;html=1;" vertex="1" parent="1">
          <mxGeometry x="80" y="490" width="120" height="60" as="geometry" />
        </mxCell>
        <mxCell id="cPrSTKIJWKcjtF2g2MPK-18" value="Registration form" style="rounded=0;whiteSpace=wrap;html=1;" vertex="1" parent="1">
          <mxGeometry x="350" y="620" width="120" height="60" as="geometry" />
        </mxCell>
        <mxCell id="cPrSTKIJWKcjtF2g2MPK-19" value="" style="endArrow=classic;html=1;rounded=0;exitX=0.5;exitY=1;exitDx=0;exitDy=0;entryX=0.5;entryY=0;entryDx=0;entryDy=0;" edge="1" parent="1" source="cPrSTKIJWKcjtF2g2MPK-16" target="cPrSTKIJWKcjtF2g2MPK-18">
          <mxGeometry width="50" height="50" relative="1" as="geometry">
            <mxPoint x="400" y="460" as="sourcePoint" />
            <mxPoint x="450" y="410" as="targetPoint" />
          </mxGeometry>
        </mxCell>
      </root>
    </mxGraphModel>
  </diagram>
</mxfile>
